<?xml version="1.0" encoding="UTF-8" standalone="no"?>
<!DOCTYPE svg PUBLIC "-//W3C//DTD SVG 1.1//EN"
 "http://www.w3.org/Graphics/SVG/1.1/DTD/svg11.dtd">
<!-- Generated by graphviz version 5.0.0 (20220707.1540)
 -->
<!-- Title: dependencies Pages: 1 -->
<svg width="674pt" height="174pt"
 viewBox="0.00 0.00 674.00 173.80" xmlns="http://www.w3.org/2000/svg" xmlns:xlink="http://www.w3.org/1999/xlink">
<g id="graph0" class="graph" transform="scale(1 1) rotate(0) translate(4 169.8)">
<title>dependencies</title>
<polygon fill="white" stroke="transparent" points="-4,4 -4,-169.8 670,-169.8 670,4 -4,4"/>
<text text-anchor="middle" x="333" y="-8.2" font-family="sans-serif" font-size="14.00">dependencies</text>
<g id="clust1" class="cluster">
<title>cluster_HomePageModule</title>
<polygon fill="none" stroke="black" stroke-dasharray="1,5" points="8,-32.8 8,-157.8 658,-157.8 658,-32.8 8,-32.8"/>
</g>
<g id="clust2" class="cluster">
<title>cluster_HomePageModule_declarations</title>
<polygon fill="none" stroke="black" points="556,-40.8 556,-92.8 650,-92.8 650,-40.8 556,-40.8"/>
</g>
<g id="clust4" class="cluster">
<title>cluster_HomePageModule_imports</title>
<polygon fill="none" stroke="black" points="16,-40.8 16,-92.8 548,-92.8 548,-40.8 16,-40.8"/>
</g>
<!-- HomePage -->
<g id="node1" class="node">
<title>HomePage</title>
<polygon fill="#ffffb3" stroke="black" points="641.93,-84.8 564.07,-84.8 564.07,-48.8 641.93,-48.8 641.93,-84.8"/>
<text text-anchor="middle" x="603" y="-62.6" font-family="Times,serif" font-size="14.00">HomePage</text>
</g>
<!-- HomePageModule -->
<g id="node2" class="node">
<title>HomePageModule</title>
<polygon fill="#8dd3c7" stroke="black" points="422.48,-149.8 419.48,-153.8 398.48,-153.8 395.48,-149.8 301.52,-149.8 301.52,-113.8 422.48,-113.8 422.48,-149.8"/>
<text text-anchor="middle" x="362" y="-127.6" font-family="Times,serif" font-size="14.00">HomePageModule</text>
</g>
<!-- HomePage&#45;&gt;HomePageModule -->
<g id="edge1" class="edge">
<title>HomePage&#45;&gt;HomePageModule</title>
<path fill="none" stroke="black" d="M603,-84.91C603,-104.14 603,-131.8 603,-131.8 603,-131.8 432.5,-131.8 432.5,-131.8"/>
<polygon fill="black" stroke="black" points="432.5,-128.3 422.5,-131.8 432.5,-135.3 432.5,-128.3"/>
</g>
<!-- CommonModule -->
<g id="node3" class="node">
<title>CommonModule</title>
<polygon fill="#8dd3c7" stroke="black" points="539.67,-84.8 536.67,-88.8 515.67,-88.8 512.67,-84.8 428.33,-84.8 428.33,-48.8 539.67,-48.8 539.67,-84.8"/>
<text text-anchor="middle" x="484" y="-62.6" font-family="Times,serif" font-size="14.00">CommonModule</text>
</g>
<!-- CommonModule&#45;&gt;HomePageModule -->
<g id="edge2" class="edge">
<title>CommonModule&#45;&gt;HomePageModule</title>
<path fill="none" stroke="black" d="M428.22,-66.8C421.01,-66.8 416.08,-66.8 416.08,-66.8 416.08,-66.8 416.08,-103.69 416.08,-103.69"/>
<polygon fill="black" stroke="black" points="412.58,-103.69 416.08,-113.69 419.58,-103.69 412.58,-103.69"/>
</g>
<!-- FormsModule -->
<g id="node4" class="node">
<title>FormsModule</title>
<polygon fill="#8dd3c7" stroke="black" points="409.84,-84.8 406.84,-88.8 385.84,-88.8 382.84,-84.8 314.16,-84.8 314.16,-48.8 409.84,-48.8 409.84,-84.8"/>
<text text-anchor="middle" x="362" y="-62.6" font-family="Times,serif" font-size="14.00">FormsModule</text>
</g>
<!-- FormsModule&#45;&gt;HomePageModule -->
<g id="edge3" class="edge">
<title>FormsModule&#45;&gt;HomePageModule</title>
<path fill="none" stroke="black" d="M362,-84.91C362,-84.91 362,-103.79 362,-103.79"/>
<polygon fill="black" stroke="black" points="358.5,-103.79 362,-113.79 365.5,-103.79 358.5,-103.79"/>
</g>
<!-- IonicModule -->
<g id="node5" class="node">
<title>IonicModule</title>
<polygon fill="#8dd3c7" stroke="black" points="296.32,-84.8 293.32,-88.8 272.32,-88.8 269.32,-84.8 207.68,-84.8 207.68,-48.8 296.32,-48.8 296.32,-84.8"/>
<text text-anchor="middle" x="252" y="-62.6" font-family="Times,serif" font-size="14.00">IonicModule</text>
</g>
<!-- IonicModule&#45;&gt;HomePageModule -->
<g id="edge4" class="edge">
<title>IonicModule&#45;&gt;HomePageModule</title>
<path fill="none" stroke="black" d="M296.33,-66.8C303.12,-66.8 307.92,-66.8 307.92,-66.8 307.92,-66.8 307.92,-103.69 307.92,-103.69"/>
<polygon fill="black" stroke="black" points="304.42,-103.69 307.92,-113.69 311.42,-103.69 304.42,-103.69"/>
</g>
<!-- HomePageRoutingModule -->
<g id="node6" class="node">
<title>HomePageRoutingModule</title>
<polygon fill="#8dd3c7" stroke="black" points="190.1,-84.8 187.1,-88.8 166.1,-88.8 163.1,-84.8 23.9,-84.8 23.9,-48.8 190.1,-48.8 190.1,-84.8"/>
<text text-anchor="middle" x="107" y="-62.6" font-family="Times,serif" font-size="14.00">HomePageRoutingModule</text>
</g>
<!-- HomePageRoutingModule&#45;&gt;HomePageModule -->
<g id="edge5" class="edge">
<title>HomePageRoutingModule&#45;&gt;HomePageModule</title>
<path fill="none" stroke="black" d="M107,-84.91C107,-104.14 107,-131.8 107,-131.8 107,-131.8 291.25,-131.8 291.25,-131.8"/>
<polygon fill="black" stroke="black" points="291.25,-135.3 301.25,-131.8 291.25,-128.3 291.25,-135.3"/>
</g>
</g>
</svg>
