<?xml version="1.0" encoding="UTF-8" standalone="no"?>
<!DOCTYPE svg PUBLIC "-//W3C//DTD SVG 1.1//EN"
 "http://www.w3.org/Graphics/SVG/1.1/DTD/svg11.dtd">
<!-- Generated by graphviz version 5.0.0 (20220707.1540)
 -->
<!-- Title: dependencies Pages: 1 -->
<svg width="953pt" height="174pt"
 viewBox="0.00 0.00 953.00 173.80" xmlns="http://www.w3.org/2000/svg" xmlns:xlink="http://www.w3.org/1999/xlink">
<g id="graph0" class="graph" transform="scale(1 1) rotate(0) translate(4 169.8)">
<title>dependencies</title>
<polygon fill="white" stroke="transparent" points="-4,4 -4,-169.8 949,-169.8 949,4 -4,4"/>
<text text-anchor="middle" x="472.5" y="-8.2" font-family="sans-serif" font-size="14.00">dependencies</text>
<g id="clust1" class="cluster">
<title>cluster_SurveyPageModule</title>
<polygon fill="none" stroke="black" stroke-dasharray="1,5" points="8,-32.8 8,-157.8 937,-157.8 937,-32.8 8,-32.8"/>
</g>
<g id="clust8" class="cluster">
<title>cluster_SurveyPageModule_imports</title>
<polygon fill="none" stroke="black" points="741,-40.8 741,-92.8 929,-92.8 929,-40.8 741,-40.8"/>
</g>
<g id="clust2" class="cluster">
<title>cluster_SurveyPageModule_declarations</title>
<polygon fill="none" stroke="black" points="16,-40.8 16,-92.8 733,-92.8 733,-40.8 16,-40.8"/>
</g>
<!-- MainformComponent -->
<g id="node1" class="node">
<title>MainformComponent</title>
<polygon fill="#ffffb3" stroke="black" points="725.1,-84.8 586.9,-84.8 586.9,-48.8 725.1,-48.8 725.1,-84.8"/>
<text text-anchor="middle" x="656" y="-62.6" font-family="Times,serif" font-size="14.00">MainformComponent</text>
</g>
<!-- SurveyPageModule -->
<g id="node6" class="node">
<title>SurveyPageModule</title>
<polygon fill="#8dd3c7" stroke="black" points="484.43,-149.8 481.43,-153.8 460.43,-153.8 457.43,-149.8 357.57,-149.8 357.57,-113.8 484.43,-113.8 484.43,-149.8"/>
<text text-anchor="middle" x="421" y="-127.6" font-family="Times,serif" font-size="14.00">SurveyPageModule</text>
</g>
<!-- MainformComponent&#45;&gt;SurveyPageModule -->
<g id="edge1" class="edge">
<title>MainformComponent&#45;&gt;SurveyPageModule</title>
<path fill="none" stroke="black" d="M656,-84.82C656,-102.17 656,-125.8 656,-125.8 656,-125.8 494.28,-125.8 494.28,-125.8"/>
<polygon fill="black" stroke="black" points="494.28,-122.3 484.28,-125.8 494.28,-129.3 494.28,-122.3"/>
</g>
<!-- OnlynumbersDirective -->
<g id="node2" class="node">
<title>OnlynumbersDirective</title>
<polygon fill="#ffffb3" stroke="black" points="569.3,-84.8 424.7,-84.8 424.7,-48.8 569.3,-48.8 569.3,-84.8"/>
<text text-anchor="middle" x="497" y="-62.6" font-family="Times,serif" font-size="14.00">OnlynumbersDirective</text>
</g>
<!-- OnlynumbersDirective&#45;&gt;SurveyPageModule -->
<g id="edge2" class="edge">
<title>OnlynumbersDirective&#45;&gt;SurveyPageModule</title>
<path fill="none" stroke="black" d="M454.53,-84.91C454.53,-84.91 454.53,-103.79 454.53,-103.79"/>
<polygon fill="black" stroke="black" points="451.03,-103.79 454.53,-113.79 458.03,-103.79 451.03,-103.79"/>
</g>
<!-- SurveyComponent -->
<g id="node3" class="node">
<title>SurveyComponent</title>
<polygon fill="#ffffb3" stroke="black" points="406.49,-84.8 285.51,-84.8 285.51,-48.8 406.49,-48.8 406.49,-84.8"/>
<text text-anchor="middle" x="346" y="-62.6" font-family="Times,serif" font-size="14.00">SurveyComponent</text>
</g>
<!-- SurveyComponent&#45;&gt;SurveyPageModule -->
<g id="edge3" class="edge">
<title>SurveyComponent&#45;&gt;SurveyPageModule</title>
<path fill="none" stroke="black" d="M382.14,-84.91C382.14,-84.91 382.14,-103.79 382.14,-103.79"/>
<polygon fill="black" stroke="black" points="378.64,-103.79 382.14,-113.79 385.64,-103.79 378.64,-103.79"/>
</g>
<!-- SurveyListComponent -->
<g id="node4" class="node">
<title>SurveyListComponent</title>
<polygon fill="#ffffb3" stroke="black" points="267.27,-84.8 124.73,-84.8 124.73,-48.8 267.27,-48.8 267.27,-84.8"/>
<text text-anchor="middle" x="196" y="-62.6" font-family="Times,serif" font-size="14.00">SurveyListComponent</text>
</g>
<!-- SurveyListComponent&#45;&gt;SurveyPageModule -->
<g id="edge4" class="edge">
<title>SurveyListComponent&#45;&gt;SurveyPageModule</title>
<path fill="none" stroke="black" d="M196,-84.82C196,-102.17 196,-125.8 196,-125.8 196,-125.8 347.73,-125.8 347.73,-125.8"/>
<polygon fill="black" stroke="black" points="347.73,-129.3 357.73,-125.8 347.73,-122.3 347.73,-129.3"/>
</g>
<!-- SurveyPage -->
<g id="node5" class="node">
<title>SurveyPage</title>
<polygon fill="#ffffb3" stroke="black" points="106.38,-84.8 23.62,-84.8 23.62,-48.8 106.38,-48.8 106.38,-84.8"/>
<text text-anchor="middle" x="65" y="-62.6" font-family="Times,serif" font-size="14.00">SurveyPage</text>
</g>
<!-- SurveyPage&#45;&gt;SurveyPageModule -->
<g id="edge5" class="edge">
<title>SurveyPage&#45;&gt;SurveyPageModule</title>
<path fill="none" stroke="black" d="M65,-85.08C65,-106.12 65,-137.8 65,-137.8 65,-137.8 347.76,-137.8 347.76,-137.8"/>
<polygon fill="black" stroke="black" points="347.76,-141.3 357.76,-137.8 347.76,-134.3 347.76,-141.3"/>
</g>
<!-- SurveyPageRoutingModule -->
<g id="node7" class="node">
<title>SurveyPageRoutingModule</title>
<polygon fill="#8dd3c7" stroke="black" points="920.55,-84.8 917.55,-88.8 896.55,-88.8 893.55,-84.8 749.45,-84.8 749.45,-48.8 920.55,-48.8 920.55,-84.8"/>
<text text-anchor="middle" x="835" y="-62.6" font-family="Times,serif" font-size="14.00">SurveyPageRoutingModule</text>
</g>
<!-- SurveyPageRoutingModule&#45;&gt;SurveyPageModule -->
<g id="edge6" class="edge">
<title>SurveyPageRoutingModule&#45;&gt;SurveyPageModule</title>
<path fill="none" stroke="black" d="M835,-85.08C835,-106.12 835,-137.8 835,-137.8 835,-137.8 494.33,-137.8 494.33,-137.8"/>
<polygon fill="black" stroke="black" points="494.33,-134.3 484.33,-137.8 494.33,-141.3 494.33,-134.3"/>
</g>
</g>
</svg>
