<?xml version="1.0" encoding="UTF-8" standalone="no"?>
<!DOCTYPE svg PUBLIC "-//W3C//DTD SVG 1.1//EN"
 "http://www.w3.org/Graphics/SVG/1.1/DTD/svg11.dtd">
<!-- Generated by graphviz version 5.0.0 (20220707.1540)
 -->
<!-- Title: dependencies Pages: 1 -->
<svg width="1465pt" height="174pt"
 viewBox="0.00 0.00 1465.00 173.80" xmlns="http://www.w3.org/2000/svg" xmlns:xlink="http://www.w3.org/1999/xlink">
<g id="graph0" class="graph" transform="scale(1 1) rotate(0) translate(4 169.8)">
<title>dependencies</title>
<polygon fill="white" stroke="transparent" points="-4,4 -4,-169.8 1461,-169.8 1461,4 -4,4"/>
<text text-anchor="middle" x="728.5" y="-8.2" font-family="sans-serif" font-size="14.00">dependencies</text>
<g id="clust1" class="cluster">
<title>cluster_SurveyPageModule</title>
<polygon fill="none" stroke="black" stroke-dasharray="1,5" points="8,-32.8 8,-157.8 1449,-157.8 1449,-32.8 8,-32.8"/>
</g>
<g id="clust2" class="cluster">
<title>cluster_SurveyPageModule_declarations</title>
<polygon fill="none" stroke="black" points="724,-40.8 724,-92.8 1441,-92.8 1441,-40.8 724,-40.8"/>
</g>
<g id="clust8" class="cluster">
<title>cluster_SurveyPageModule_imports</title>
<polygon fill="none" stroke="black" points="16,-40.8 16,-92.8 716,-92.8 716,-40.8 16,-40.8"/>
</g>
<!-- SurveyPage -->
<g id="node1" class="node">
<title>SurveyPage</title>
<polygon fill="#ffffb3" stroke="black" points="1433.38,-84.8 1350.62,-84.8 1350.62,-48.8 1433.38,-48.8 1433.38,-84.8"/>
<text text-anchor="middle" x="1392" y="-62.6" font-family="Times,serif" font-size="14.00">SurveyPage</text>
</g>
<!-- SurveyPageModule -->
<g id="node6" class="node">
<title>SurveyPageModule</title>
<polygon fill="#8dd3c7" stroke="black" points="791.43,-149.8 788.43,-153.8 767.43,-153.8 764.43,-149.8 664.57,-149.8 664.57,-113.8 791.43,-113.8 791.43,-149.8"/>
<text text-anchor="middle" x="728" y="-127.6" font-family="Times,serif" font-size="14.00">SurveyPageModule</text>
</g>
<!-- SurveyPage&#45;&gt;SurveyPageModule -->
<g id="edge1" class="edge">
<title>SurveyPage&#45;&gt;SurveyPageModule</title>
<path fill="none" stroke="black" d="M1392,-84.81C1392,-107.29 1392,-142.8 1392,-142.8 1392,-142.8 801.37,-142.8 801.37,-142.8"/>
<polygon fill="black" stroke="black" points="801.37,-139.3 791.37,-142.8 801.37,-146.3 801.37,-139.3"/>
</g>
<!-- MainformComponent -->
<g id="node2" class="node">
<title>MainformComponent</title>
<polygon fill="#ffffb3" stroke="black" points="1333.1,-84.8 1194.9,-84.8 1194.9,-48.8 1333.1,-48.8 1333.1,-84.8"/>
<text text-anchor="middle" x="1264" y="-62.6" font-family="Times,serif" font-size="14.00">MainformComponent</text>
</g>
<!-- MainformComponent&#45;&gt;SurveyPageModule -->
<g id="edge2" class="edge">
<title>MainformComponent&#45;&gt;SurveyPageModule</title>
<path fill="none" stroke="black" d="M1264,-84.93C1264,-105.37 1264,-135.8 1264,-135.8 1264,-135.8 801.33,-135.8 801.33,-135.8"/>
<polygon fill="black" stroke="black" points="801.33,-132.3 791.33,-135.8 801.33,-139.3 801.33,-132.3"/>
</g>
<!-- SurveyComponent -->
<g id="node3" class="node">
<title>SurveyComponent</title>
<polygon fill="#ffffb3" stroke="black" points="1176.49,-84.8 1055.51,-84.8 1055.51,-48.8 1176.49,-48.8 1176.49,-84.8"/>
<text text-anchor="middle" x="1116" y="-62.6" font-family="Times,serif" font-size="14.00">SurveyComponent</text>
</g>
<!-- SurveyComponent&#45;&gt;SurveyPageModule -->
<g id="edge3" class="edge">
<title>SurveyComponent&#45;&gt;SurveyPageModule</title>
<path fill="none" stroke="black" d="M1116,-85.07C1116,-103.36 1116,-128.8 1116,-128.8 1116,-128.8 801.64,-128.8 801.64,-128.8"/>
<polygon fill="black" stroke="black" points="801.64,-125.3 791.64,-128.8 801.64,-132.3 801.64,-125.3"/>
</g>
<!-- SurveyListComponent -->
<g id="node4" class="node">
<title>SurveyListComponent</title>
<polygon fill="#ffffb3" stroke="black" points="1037.27,-84.8 894.73,-84.8 894.73,-48.8 1037.27,-48.8 1037.27,-84.8"/>
<text text-anchor="middle" x="966" y="-62.6" font-family="Times,serif" font-size="14.00">SurveyListComponent</text>
</g>
<!-- SurveyListComponent&#45;&gt;SurveyPageModule -->
<g id="edge4" class="edge">
<title>SurveyListComponent&#45;&gt;SurveyPageModule</title>
<path fill="none" stroke="black" d="M966,-84.81C966,-100.85 966,-121.8 966,-121.8 966,-121.8 801.47,-121.8 801.47,-121.8"/>
<polygon fill="black" stroke="black" points="801.47,-118.3 791.47,-121.8 801.47,-125.3 801.47,-118.3"/>
</g>
<!-- OnlynumbersDirective -->
<g id="node5" class="node">
<title>OnlynumbersDirective</title>
<polygon fill="#ffffb3" stroke="black" points="876.3,-84.8 731.7,-84.8 731.7,-48.8 876.3,-48.8 876.3,-84.8"/>
<text text-anchor="middle" x="804" y="-62.6" font-family="Times,serif" font-size="14.00">OnlynumbersDirective</text>
</g>
<!-- OnlynumbersDirective&#45;&gt;SurveyPageModule -->
<g id="edge5" class="edge">
<title>OnlynumbersDirective&#45;&gt;SurveyPageModule</title>
<path fill="none" stroke="black" d="M761.53,-84.91C761.53,-84.91 761.53,-103.79 761.53,-103.79"/>
<polygon fill="black" stroke="black" points="758.03,-103.79 761.53,-113.79 765.03,-103.79 758.03,-103.79"/>
</g>
<!-- CommonModule -->
<g id="node7" class="node">
<title>CommonModule</title>
<polygon fill="#8dd3c7" stroke="black" points="707.67,-84.8 704.67,-88.8 683.67,-88.8 680.67,-84.8 596.33,-84.8 596.33,-48.8 707.67,-48.8 707.67,-84.8"/>
<text text-anchor="middle" x="652" y="-62.6" font-family="Times,serif" font-size="14.00">CommonModule</text>
</g>
<!-- CommonModule&#45;&gt;SurveyPageModule -->
<g id="edge6" class="edge">
<title>CommonModule&#45;&gt;SurveyPageModule</title>
<path fill="none" stroke="black" d="M686.31,-84.91C686.31,-84.91 686.31,-103.79 686.31,-103.79"/>
<polygon fill="black" stroke="black" points="682.81,-103.79 686.31,-113.79 689.81,-103.79 682.81,-103.79"/>
</g>
<!-- FormsModule -->
<g id="node8" class="node">
<title>FormsModule</title>
<polygon fill="#8dd3c7" stroke="black" points="577.84,-84.8 574.84,-88.8 553.84,-88.8 550.84,-84.8 482.16,-84.8 482.16,-48.8 577.84,-48.8 577.84,-84.8"/>
<text text-anchor="middle" x="530" y="-62.6" font-family="Times,serif" font-size="14.00">FormsModule</text>
</g>
<!-- FormsModule&#45;&gt;SurveyPageModule -->
<g id="edge7" class="edge">
<title>FormsModule&#45;&gt;SurveyPageModule</title>
<path fill="none" stroke="black" d="M530,-84.81C530,-100.85 530,-121.8 530,-121.8 530,-121.8 654.53,-121.8 654.53,-121.8"/>
<polygon fill="black" stroke="black" points="654.53,-125.3 664.53,-121.8 654.53,-118.3 654.53,-125.3"/>
</g>
<!-- ReactiveFormsModule -->
<g id="node9" class="node">
<title>ReactiveFormsModule</title>
<polygon fill="#8dd3c7" stroke="black" points="464.31,-84.8 461.31,-88.8 440.31,-88.8 437.31,-84.8 319.69,-84.8 319.69,-48.8 464.31,-48.8 464.31,-84.8"/>
<text text-anchor="middle" x="392" y="-62.6" font-family="Times,serif" font-size="14.00">ReactiveFormsModule</text>
</g>
<!-- ReactiveFormsModule&#45;&gt;SurveyPageModule -->
<g id="edge8" class="edge">
<title>ReactiveFormsModule&#45;&gt;SurveyPageModule</title>
<path fill="none" stroke="black" d="M392,-85.07C392,-103.36 392,-128.8 392,-128.8 392,-128.8 654.41,-128.8 654.41,-128.8"/>
<polygon fill="black" stroke="black" points="654.41,-132.3 664.41,-128.8 654.41,-125.3 654.41,-132.3"/>
</g>
<!-- IonicModule -->
<g id="node10" class="node">
<title>IonicModule</title>
<polygon fill="#8dd3c7" stroke="black" points="302.32,-84.8 299.32,-88.8 278.32,-88.8 275.32,-84.8 213.68,-84.8 213.68,-48.8 302.32,-48.8 302.32,-84.8"/>
<text text-anchor="middle" x="258" y="-62.6" font-family="Times,serif" font-size="14.00">IonicModule</text>
</g>
<!-- IonicModule&#45;&gt;SurveyPageModule -->
<g id="edge9" class="edge">
<title>IonicModule&#45;&gt;SurveyPageModule</title>
<path fill="none" stroke="black" d="M258,-84.93C258,-105.37 258,-135.8 258,-135.8 258,-135.8 654.61,-135.8 654.61,-135.8"/>
<polygon fill="black" stroke="black" points="654.61,-139.3 664.61,-135.8 654.61,-132.3 654.61,-139.3"/>
</g>
<!-- SurveyPageRoutingModule -->
<g id="node11" class="node">
<title>SurveyPageRoutingModule</title>
<polygon fill="#8dd3c7" stroke="black" points="195.55,-84.8 192.55,-88.8 171.55,-88.8 168.55,-84.8 24.45,-84.8 24.45,-48.8 195.55,-48.8 195.55,-84.8"/>
<text text-anchor="middle" x="110" y="-62.6" font-family="Times,serif" font-size="14.00">SurveyPageRoutingModule</text>
</g>
<!-- SurveyPageRoutingModule&#45;&gt;SurveyPageModule -->
<g id="edge10" class="edge">
<title>SurveyPageRoutingModule&#45;&gt;SurveyPageModule</title>
<path fill="none" stroke="black" d="M110,-84.81C110,-107.29 110,-142.8 110,-142.8 110,-142.8 654.77,-142.8 654.77,-142.8"/>
<polygon fill="black" stroke="black" points="654.77,-146.3 664.77,-142.8 654.77,-139.3 654.77,-146.3"/>
</g>
</g>
</svg>
