<?xml version="1.0" encoding="UTF-8" standalone="no"?>
<!DOCTYPE svg PUBLIC "-//W3C//DTD SVG 1.1//EN"
 "http://www.w3.org/Graphics/SVG/1.1/DTD/svg11.dtd">
<!-- Generated by graphviz version 5.0.0 (20220707.1540)
 -->
<!-- Title: dependencies Pages: 1 -->
<svg width="238pt" height="247pt"
 viewBox="0.00 0.00 238.00 246.80" xmlns="http://www.w3.org/2000/svg" xmlns:xlink="http://www.w3.org/1999/xlink">
<g id="graph0" class="graph" transform="scale(1 1) rotate(0) translate(4 242.8)">
<title>dependencies</title>
<polygon fill="white" stroke="transparent" points="-4,4 -4,-242.8 234,-242.8 234,4 -4,4"/>
<text text-anchor="middle" x="115" y="-8.2" font-family="sans-serif" font-size="14.00">dependencies</text>
<g id="clust1" class="cluster">
<title>cluster_SurveyPageRoutingModule</title>
<polygon fill="none" stroke="black" stroke-dasharray="1,5" points="8,-32.8 8,-230.8 222,-230.8 222,-32.8 8,-32.8"/>
</g>
<g id="clust3" class="cluster">
<title>cluster_SurveyPageRoutingModule_imports</title>
<polygon fill="none" stroke="black" points="16,-40.8 16,-92.8 214,-92.8 214,-40.8 16,-40.8"/>
</g>
<g id="clust4" class="cluster">
<title>cluster_SurveyPageRoutingModule_exports</title>
<polygon fill="none" stroke="black" points="56,-170.8 56,-222.8 174,-222.8 174,-170.8 56,-170.8"/>
</g>
<!-- RouterModule.forChild(args) -->
<g id="node1" class="node">
<title>RouterModule.forChild(args)</title>
<polygon fill="#8dd3c7" stroke="black" points="205.75,-84.8 202.75,-88.8 181.75,-88.8 178.75,-84.8 24.25,-84.8 24.25,-48.8 205.75,-48.8 205.75,-84.8"/>
<text text-anchor="middle" x="115" y="-62.6" font-family="Times,serif" font-size="14.00">RouterModule.forChild(args)</text>
</g>
<!-- SurveyPageRoutingModule -->
<g id="node2" class="node">
<title>SurveyPageRoutingModule</title>
<polygon fill="#8dd3c7" stroke="black" points="200.55,-149.8 197.55,-153.8 176.55,-153.8 173.55,-149.8 29.45,-149.8 29.45,-113.8 200.55,-113.8 200.55,-149.8"/>
<text text-anchor="middle" x="115" y="-127.6" font-family="Times,serif" font-size="14.00">SurveyPageRoutingModule</text>
</g>
<!-- RouterModule.forChild(args)&#45;&gt;SurveyPageRoutingModule -->
<g id="edge1" class="edge">
<title>RouterModule.forChild(args)&#45;&gt;SurveyPageRoutingModule</title>
<path fill="none" stroke="black" d="M115,-84.91C115,-84.91 115,-103.79 115,-103.79"/>
<polygon fill="black" stroke="black" points="111.5,-103.79 115,-113.79 118.5,-103.79 111.5,-103.79"/>
</g>
<!-- RouterModule  -->
<g id="node3" class="node">
<title>RouterModule </title>
<polygon fill="#fb8072" stroke="black" points="165.66,-214.8 64.34,-214.8 64.34,-178.8 165.66,-178.8 165.66,-214.8"/>
<text text-anchor="middle" x="115" y="-192.6" font-family="Times,serif" font-size="14.00">RouterModule </text>
</g>
<!-- SurveyPageRoutingModule&#45;&gt;RouterModule  -->
<g id="edge2" class="edge">
<title>SurveyPageRoutingModule&#45;&gt;RouterModule </title>
<path fill="none" stroke="black" stroke-dasharray="5,2" d="M115,-149.91C115,-149.91 115,-168.79 115,-168.79"/>
<polygon fill="black" stroke="black" points="111.5,-168.79 115,-178.79 118.5,-168.79 111.5,-168.79"/>
</g>
</g>
</svg>
