<?xml version="1.0" encoding="UTF-8" standalone="no"?>
<!DOCTYPE svg PUBLIC "-//W3C//DTD SVG 1.1//EN"
 "http://www.w3.org/Graphics/SVG/1.1/DTD/svg11.dtd">
<!-- Generated by graphviz version 5.0.0 (20220707.1540)
 -->
<!-- Title: dependencies Pages: 1 -->
<svg width="1654pt" height="247pt"
 viewBox="0.00 0.00 1654.00 246.80" xmlns="http://www.w3.org/2000/svg" xmlns:xlink="http://www.w3.org/1999/xlink">
<g id="graph0" class="graph" transform="scale(1 1) rotate(0) translate(4 242.8)">
<title>dependencies</title>
<polygon fill="white" stroke="transparent" points="-4,4 -4,-242.8 1650,-242.8 1650,4 -4,4"/>
<text text-anchor="middle" x="823" y="-8.2" font-family="sans-serif" font-size="14.00">dependencies</text>
<g id="clust1" class="cluster">
<title>cluster_AppModule</title>
<polygon fill="none" stroke="black" stroke-dasharray="1,5" points="8,-32.8 8,-230.8 1638,-230.8 1638,-32.8 8,-32.8"/>
</g>
<g id="clust2" class="cluster">
<title>cluster_AppModule_declarations</title>
<polygon fill="none" stroke="black" points="1508,-40.8 1508,-92.8 1630,-92.8 1630,-40.8 1508,-40.8"/>
</g>
<g id="clust4" class="cluster">
<title>cluster_AppModule_imports</title>
<polygon fill="none" stroke="black" points="931,-40.8 931,-92.8 1500,-92.8 1500,-40.8 931,-40.8"/>
</g>
<g id="clust7" class="cluster">
<title>cluster_AppModule_providers</title>
<polygon fill="none" stroke="black" points="16,-40.8 16,-92.8 923,-92.8 923,-40.8 16,-40.8"/>
</g>
<g id="clust6" class="cluster">
<title>cluster_AppModule_bootstrap</title>
<polygon fill="none" stroke="black" points="936,-170.8 936,-222.8 1060,-222.8 1060,-170.8 936,-170.8"/>
</g>
<!-- AppComponent -->
<g id="node1" class="node">
<title>AppComponent</title>
<polygon fill="#ffffb3" stroke="black" points="1621.94,-84.8 1516.06,-84.8 1516.06,-48.8 1621.94,-48.8 1621.94,-84.8"/>
<text text-anchor="middle" x="1569" y="-62.6" font-family="Times,serif" font-size="14.00">AppComponent</text>
</g>
<!-- AppModule -->
<g id="node2" class="node">
<title>AppModule</title>
<polygon fill="#8dd3c7" stroke="black" points="1039.66,-149.8 1036.66,-153.8 1015.66,-153.8 1012.66,-149.8 956.34,-149.8 956.34,-113.8 1039.66,-113.8 1039.66,-149.8"/>
<text text-anchor="middle" x="998" y="-127.6" font-family="Times,serif" font-size="14.00">AppModule</text>
</g>
<!-- AppComponent&#45;&gt;AppModule -->
<g id="edge1" class="edge">
<title>AppComponent&#45;&gt;AppModule</title>
<path fill="none" stroke="black" d="M1569,-84.81C1569,-107.29 1569,-142.8 1569,-142.8 1569,-142.8 1049.99,-142.8 1049.99,-142.8"/>
<polygon fill="black" stroke="black" points="1049.99,-139.3 1039.99,-142.8 1049.99,-146.3 1049.99,-139.3"/>
</g>
<!-- AppComponent  -->
<g id="node7" class="node">
<title>AppComponent </title>
<polygon fill="#80b1d3" stroke="black" points="1052.44,-214.8 943.56,-214.8 943.56,-178.8 1052.44,-178.8 1052.44,-214.8"/>
<text text-anchor="middle" x="998" y="-192.6" font-family="Times,serif" font-size="14.00">AppComponent </text>
</g>
<!-- AppModule&#45;&gt;AppComponent  -->
<g id="edge6" class="edge">
<title>AppModule&#45;&gt;AppComponent </title>
<path fill="none" stroke="black" stroke-dasharray="1,5" d="M998,-149.91C998,-149.91 998,-168.79 998,-168.79"/>
<polygon fill="black" stroke="black" points="994.5,-168.79 998,-178.79 1001.5,-168.79 994.5,-168.79"/>
</g>
<!-- BrowserModule -->
<g id="node3" class="node">
<title>BrowserModule</title>
<polygon fill="#8dd3c7" stroke="black" points="1492.49,-84.8 1489.49,-88.8 1468.49,-88.8 1465.49,-84.8 1385.51,-84.8 1385.51,-48.8 1492.49,-48.8 1492.49,-84.8"/>
<text text-anchor="middle" x="1439" y="-62.6" font-family="Times,serif" font-size="14.00">BrowserModule</text>
</g>
<!-- BrowserModule&#45;&gt;AppModule -->
<g id="edge2" class="edge">
<title>BrowserModule&#45;&gt;AppModule</title>
<path fill="none" stroke="black" d="M1439,-84.93C1439,-105.37 1439,-135.8 1439,-135.8 1439,-135.8 1049.89,-135.8 1049.89,-135.8"/>
<polygon fill="black" stroke="black" points="1049.89,-132.3 1039.89,-135.8 1049.89,-139.3 1049.89,-132.3"/>
</g>
<!-- IonicModule.forRoot() -->
<g id="node4" class="node">
<title>IonicModule.forRoot()</title>
<polygon fill="#8dd3c7" stroke="black" points="1367.19,-84.8 1364.19,-88.8 1343.19,-88.8 1340.19,-84.8 1222.81,-84.8 1222.81,-48.8 1367.19,-48.8 1367.19,-84.8"/>
<text text-anchor="middle" x="1295" y="-62.6" font-family="Times,serif" font-size="14.00">IonicModule.forRoot()</text>
</g>
<!-- IonicModule.forRoot()&#45;&gt;AppModule -->
<g id="edge3" class="edge">
<title>IonicModule.forRoot()&#45;&gt;AppModule</title>
<path fill="none" stroke="black" d="M1295,-85.07C1295,-103.36 1295,-128.8 1295,-128.8 1295,-128.8 1049.92,-128.8 1049.92,-128.8"/>
<polygon fill="black" stroke="black" points="1049.92,-125.3 1039.92,-128.8 1049.92,-132.3 1049.92,-125.3"/>
</g>
<!-- AppRoutingModule -->
<g id="node5" class="node">
<title>AppRoutingModule</title>
<polygon fill="#8dd3c7" stroke="black" points="1204.28,-84.8 1201.28,-88.8 1180.28,-88.8 1177.28,-84.8 1075.72,-84.8 1075.72,-48.8 1204.28,-48.8 1204.28,-84.8"/>
<text text-anchor="middle" x="1140" y="-62.6" font-family="Times,serif" font-size="14.00">AppRoutingModule</text>
</g>
<!-- AppRoutingModule&#45;&gt;AppModule -->
<g id="edge4" class="edge">
<title>AppRoutingModule&#45;&gt;AppModule</title>
<path fill="none" stroke="black" d="M1140,-84.81C1140,-100.85 1140,-121.8 1140,-121.8 1140,-121.8 1049.84,-121.8 1049.84,-121.8"/>
<polygon fill="black" stroke="black" points="1049.84,-118.3 1039.84,-121.8 1049.84,-125.3 1049.84,-118.3"/>
</g>
<!-- HttpClientModule -->
<g id="node6" class="node">
<title>HttpClientModule</title>
<polygon fill="#8dd3c7" stroke="black" points="1057.16,-84.8 1054.16,-88.8 1033.16,-88.8 1030.16,-84.8 938.84,-84.8 938.84,-48.8 1057.16,-48.8 1057.16,-84.8"/>
<text text-anchor="middle" x="998" y="-62.6" font-family="Times,serif" font-size="14.00">HttpClientModule</text>
</g>
<!-- HttpClientModule&#45;&gt;AppModule -->
<g id="edge5" class="edge">
<title>HttpClientModule&#45;&gt;AppModule</title>
<path fill="none" stroke="black" d="M998,-84.91C998,-84.91 998,-103.79 998,-103.79"/>
<polygon fill="black" stroke="black" points="994.5,-103.79 998,-113.79 1001.5,-103.79 994.5,-103.79"/>
</g>
<!-- { provide: RouteReuseStrategy, useClass: IonicRouteStrategy } -->
<g id="node8" class="node">
<title>{ provide: RouteReuseStrategy, useClass: IonicRouteStrategy }</title>
<ellipse fill="#fdb462" stroke="black" cx="658" cy="-66.8" rx="257.29" ry="18"/>
<text text-anchor="middle" x="658" y="-62.6" font-family="Times,serif" font-size="14.00">{ provide: RouteReuseStrategy, useClass: IonicRouteStrategy }</text>
</g>
<!-- { provide: RouteReuseStrategy, useClass: IonicRouteStrategy }&#45;&gt;AppModule -->
<g id="edge7" class="edge">
<title>{ provide: RouteReuseStrategy, useClass: IonicRouteStrategy }&#45;&gt;AppModule</title>
<path fill="none" stroke="black" d="M658,-84.81C658,-100.85 658,-121.8 658,-121.8 658,-121.8 946.31,-121.8 946.31,-121.8"/>
<polygon fill="black" stroke="black" points="946.31,-125.3 956.31,-121.8 946.31,-118.3 946.31,-125.3"/>
</g>
<!-- ScreenOrientation -->
<g id="node9" class="node">
<title>ScreenOrientation</title>
<ellipse fill="#fdb462" stroke="black" cx="301" cy="-66.8" rx="81.08" ry="18"/>
<text text-anchor="middle" x="301" y="-62.6" font-family="Times,serif" font-size="14.00">ScreenOrientation</text>
</g>
<!-- ScreenOrientation&#45;&gt;AppModule -->
<g id="edge8" class="edge">
<title>ScreenOrientation&#45;&gt;AppModule</title>
<path fill="none" stroke="black" d="M301,-85.07C301,-103.36 301,-128.8 301,-128.8 301,-128.8 946.23,-128.8 946.23,-128.8"/>
<polygon fill="black" stroke="black" points="946.23,-132.3 956.23,-128.8 946.23,-125.3 946.23,-132.3"/>
</g>
<!-- Camera -->
<g id="node10" class="node">
<title>Camera</title>
<ellipse fill="#fdb462" stroke="black" cx="161" cy="-66.8" rx="41.13" ry="18"/>
<text text-anchor="middle" x="161" y="-62.6" font-family="Times,serif" font-size="14.00">Camera</text>
</g>
<!-- Camera&#45;&gt;AppModule -->
<g id="edge9" class="edge">
<title>Camera&#45;&gt;AppModule</title>
<path fill="none" stroke="black" d="M161,-84.93C161,-105.37 161,-135.8 161,-135.8 161,-135.8 946.21,-135.8 946.21,-135.8"/>
<polygon fill="black" stroke="black" points="946.21,-139.3 956.21,-135.8 946.21,-132.3 946.21,-139.3"/>
</g>
<!-- SQLite -->
<g id="node11" class="node">
<title>SQLite</title>
<ellipse fill="#fdb462" stroke="black" cx="63" cy="-66.8" rx="38.86" ry="18"/>
<text text-anchor="middle" x="63" y="-62.6" font-family="Times,serif" font-size="14.00">SQLite</text>
</g>
<!-- SQLite&#45;&gt;AppModule -->
<g id="edge10" class="edge">
<title>SQLite&#45;&gt;AppModule</title>
<path fill="none" stroke="black" d="M63,-84.81C63,-107.29 63,-142.8 63,-142.8 63,-142.8 946.31,-142.8 946.31,-142.8"/>
<polygon fill="black" stroke="black" points="946.31,-146.3 956.31,-142.8 946.31,-139.3 946.31,-146.3"/>
</g>
</g>
</svg>
