<?xml version="1.0" encoding="UTF-8" standalone="no"?>
<!DOCTYPE svg PUBLIC "-//W3C//DTD SVG 1.1//EN"
 "http://www.w3.org/Graphics/SVG/1.1/DTD/svg11.dtd">
<!-- Generated by graphviz version 5.0.0 (20220707.1540)
 -->
<!-- Title: dependencies Pages: 1 -->
<svg width="3759pt" height="253pt"
 viewBox="0.00 0.00 3759.00 252.80" xmlns="http://www.w3.org/2000/svg" xmlns:xlink="http://www.w3.org/1999/xlink">
<g id="graph0" class="graph" transform="scale(1 1) rotate(0) translate(4 248.8)">
<title>dependencies</title>
<polygon fill="white" stroke="transparent" points="-4,4 -4,-248.8 3755,-248.8 3755,4 -4,4"/>
<text text-anchor="middle" x="1875.5" y="-8.2" font-family="sans-serif" font-size="14.00">dependencies</text>
<g id="clust1" class="cluster">
<title>cluster_AppModule</title>
<polygon fill="none" stroke="black" stroke-dasharray="1,5" points="8,-32.8 8,-236.8 1638,-236.8 1638,-32.8 8,-32.8"/>
</g>
<g id="clust2" class="cluster">
<title>cluster_AppModule_declarations</title>
<polygon fill="none" stroke="black" points="1508,-40.8 1508,-92.8 1630,-92.8 1630,-40.8 1508,-40.8"/>
</g>
<g id="clust4" class="cluster">
<title>cluster_AppModule_imports</title>
<polygon fill="none" stroke="black" points="931,-40.8 931,-92.8 1500,-92.8 1500,-40.8 931,-40.8"/>
</g>
<g id="clust6" class="cluster">
<title>cluster_AppModule_bootstrap</title>
<polygon fill="none" stroke="black" points="949,-176.8 949,-228.8 1073,-228.8 1073,-176.8 949,-176.8"/>
</g>
<g id="clust7" class="cluster">
<title>cluster_AppModule_providers</title>
<polygon fill="none" stroke="black" points="16,-40.8 16,-92.8 923,-92.8 923,-40.8 16,-40.8"/>
</g>
<g id="clust8" class="cluster">
<title>cluster_HomePageModule</title>
<polygon fill="none" stroke="black" stroke-dasharray="1,5" points="1646,-32.8 1646,-160.8 2296,-160.8 2296,-32.8 1646,-32.8"/>
</g>
<g id="clust9" class="cluster">
<title>cluster_HomePageModule_declarations</title>
<polygon fill="none" stroke="black" points="1654,-40.8 1654,-92.8 1748,-92.8 1748,-40.8 1654,-40.8"/>
</g>
<g id="clust11" class="cluster">
<title>cluster_HomePageModule_imports</title>
<polygon fill="none" stroke="black" points="1756,-40.8 1756,-92.8 2288,-92.8 2288,-40.8 1756,-40.8"/>
</g>
<g id="clust15" class="cluster">
<title>cluster_SurveyPageModule</title>
<polygon fill="none" stroke="black" stroke-dasharray="1,5" points="2304,-32.8 2304,-160.8 3395,-160.8 3395,-32.8 2304,-32.8"/>
</g>
<g id="clust16" class="cluster">
<title>cluster_SurveyPageModule_declarations</title>
<polygon fill="none" stroke="black" points="2312,-40.8 2312,-92.8 3029,-92.8 3029,-40.8 2312,-40.8"/>
</g>
<g id="clust22" class="cluster">
<title>cluster_SurveyPageModule_imports</title>
<polygon fill="none" stroke="black" points="3037,-40.8 3037,-92.8 3387,-92.8 3387,-40.8 3037,-40.8"/>
</g>
<g id="clust26" class="cluster">
<title>cluster_SurveyPageRoutingModule</title>
<polygon fill="none" stroke="black" stroke-dasharray="1,5" points="3403,-100.8 3403,-168.8 3743,-168.8 3743,-100.8 3403,-100.8"/>
</g>
<g id="clust28" class="cluster">
<title>cluster_SurveyPageRoutingModule_imports</title>
<polygon fill="none" stroke="black" points="3537,-108.8 3537,-160.8 3735,-160.8 3735,-108.8 3537,-108.8"/>
</g>
<g id="clust29" class="cluster">
<title>cluster_SurveyPageRoutingModule_exports</title>
<polygon fill="none" stroke="black" points="3411,-108.8 3411,-160.8 3529,-160.8 3529,-108.8 3411,-108.8"/>
</g>
<!-- AppComponent -->
<g id="node1" class="node">
<title>AppComponent</title>
<polygon fill="#ffffb3" stroke="black" points="1621.94,-84.8 1516.06,-84.8 1516.06,-48.8 1621.94,-48.8 1621.94,-84.8"/>
<text text-anchor="middle" x="1569" y="-62.6" font-family="Times,serif" font-size="14.00">AppComponent</text>
</g>
<!-- AppModule -->
<g id="node2" class="node">
<title>AppModule</title>
<polygon fill="#8dd3c7" stroke="black" points="1052.66,-152.8 1049.66,-156.8 1028.66,-156.8 1025.66,-152.8 969.34,-152.8 969.34,-116.8 1052.66,-116.8 1052.66,-152.8"/>
<text text-anchor="middle" x="1011" y="-130.6" font-family="Times,serif" font-size="14.00">AppModule</text>
</g>
<!-- AppComponent&#45;&gt;AppModule -->
<g id="edge1" class="edge">
<title>AppComponent&#45;&gt;AppModule</title>
<path fill="none" stroke="black" d="M1569,-84.95C1569,-108.56 1569,-146.8 1569,-146.8 1569,-146.8 1062.94,-146.8 1062.94,-146.8"/>
<polygon fill="black" stroke="black" points="1062.94,-143.3 1052.94,-146.8 1062.94,-150.3 1062.94,-143.3"/>
</g>
<!-- AppComponent  -->
<g id="node7" class="node">
<title>AppComponent </title>
<polygon fill="#80b1d3" stroke="black" points="1065.44,-220.8 956.56,-220.8 956.56,-184.8 1065.44,-184.8 1065.44,-220.8"/>
<text text-anchor="middle" x="1011" y="-198.6" font-family="Times,serif" font-size="14.00">AppComponent </text>
</g>
<!-- AppModule&#45;&gt;AppComponent  -->
<g id="edge6" class="edge">
<title>AppModule&#45;&gt;AppComponent </title>
<path fill="none" stroke="black" stroke-dasharray="1,5" d="M1011,-153.02C1011,-153.02 1011,-174.53 1011,-174.53"/>
<polygon fill="black" stroke="black" points="1007.5,-174.53 1011,-184.53 1014.5,-174.53 1007.5,-174.53"/>
</g>
<!-- BrowserModule -->
<g id="node3" class="node">
<title>BrowserModule</title>
<polygon fill="#8dd3c7" stroke="black" points="1208.49,-84.8 1205.49,-88.8 1184.49,-88.8 1181.49,-84.8 1101.51,-84.8 1101.51,-48.8 1208.49,-48.8 1208.49,-84.8"/>
<text text-anchor="middle" x="1155" y="-62.6" font-family="Times,serif" font-size="14.00">BrowserModule</text>
</g>
<!-- BrowserModule&#45;&gt;AppModule -->
<g id="edge2" class="edge">
<title>BrowserModule&#45;&gt;AppModule</title>
<path fill="none" stroke="black" d="M1155,-85.07C1155,-103.36 1155,-128.8 1155,-128.8 1155,-128.8 1063.04,-128.8 1063.04,-128.8"/>
<polygon fill="black" stroke="black" points="1063.04,-125.3 1053.04,-128.8 1063.04,-132.3 1063.04,-125.3"/>
</g>
<!-- IonicModule.forRoot() -->
<g id="node4" class="node">
<title>IonicModule.forRoot()</title>
<polygon fill="#8dd3c7" stroke="black" points="1083.19,-84.8 1080.19,-88.8 1059.19,-88.8 1056.19,-84.8 938.81,-84.8 938.81,-48.8 1083.19,-48.8 1083.19,-84.8"/>
<text text-anchor="middle" x="1011" y="-62.6" font-family="Times,serif" font-size="14.00">IonicModule.forRoot()</text>
</g>
<!-- IonicModule.forRoot()&#45;&gt;AppModule -->
<g id="edge3" class="edge">
<title>IonicModule.forRoot()&#45;&gt;AppModule</title>
<path fill="none" stroke="black" d="M1011,-85.02C1011,-85.02 1011,-106.53 1011,-106.53"/>
<polygon fill="black" stroke="black" points="1007.5,-106.53 1011,-116.53 1014.5,-106.53 1007.5,-106.53"/>
</g>
<!-- AppRoutingModule -->
<g id="node5" class="node">
<title>AppRoutingModule</title>
<polygon fill="#8dd3c7" stroke="black" points="1492.28,-84.8 1489.28,-88.8 1468.28,-88.8 1465.28,-84.8 1363.72,-84.8 1363.72,-48.8 1492.28,-48.8 1492.28,-84.8"/>
<text text-anchor="middle" x="1428" y="-62.6" font-family="Times,serif" font-size="14.00">AppRoutingModule</text>
</g>
<!-- AppRoutingModule&#45;&gt;AppModule -->
<g id="edge4" class="edge">
<title>AppRoutingModule&#45;&gt;AppModule</title>
<path fill="none" stroke="black" d="M1428,-85.09C1428,-107.01 1428,-140.8 1428,-140.8 1428,-140.8 1062.89,-140.8 1062.89,-140.8"/>
<polygon fill="black" stroke="black" points="1062.89,-137.3 1052.89,-140.8 1062.89,-144.3 1062.89,-137.3"/>
</g>
<!-- HttpClientModule -->
<g id="node6" class="node">
<title>HttpClientModule</title>
<polygon fill="#8dd3c7" stroke="black" points="1345.16,-84.8 1342.16,-88.8 1321.16,-88.8 1318.16,-84.8 1226.84,-84.8 1226.84,-48.8 1345.16,-48.8 1345.16,-84.8"/>
<text text-anchor="middle" x="1286" y="-62.6" font-family="Times,serif" font-size="14.00">HttpClientModule</text>
</g>
<!-- HttpClientModule&#45;&gt;AppModule -->
<g id="edge5" class="edge">
<title>HttpClientModule&#45;&gt;AppModule</title>
<path fill="none" stroke="black" d="M1286,-85.02C1286,-105.17 1286,-134.8 1286,-134.8 1286,-134.8 1062.77,-134.8 1062.77,-134.8"/>
<polygon fill="black" stroke="black" points="1062.77,-131.3 1052.77,-134.8 1062.77,-138.3 1062.77,-131.3"/>
</g>
<!-- { provide: RouteReuseStrategy, useClass: IonicRouteStrategy } -->
<g id="node8" class="node">
<title>{ provide: RouteReuseStrategy, useClass: IonicRouteStrategy }</title>
<ellipse fill="#fdb462" stroke="black" cx="462" cy="-66.8" rx="257.29" ry="18"/>
<text text-anchor="middle" x="462" y="-62.6" font-family="Times,serif" font-size="14.00">{ provide: RouteReuseStrategy, useClass: IonicRouteStrategy }</text>
</g>
<!-- { provide: RouteReuseStrategy, useClass: IonicRouteStrategy }&#45;&gt;AppModule -->
<g id="edge7" class="edge">
<title>{ provide: RouteReuseStrategy, useClass: IonicRouteStrategy }&#45;&gt;AppModule</title>
<path fill="none" stroke="black" d="M462,-84.97C462,-106.3 462,-138.8 462,-138.8 462,-138.8 959.29,-138.8 959.29,-138.8"/>
<polygon fill="black" stroke="black" points="959.29,-142.3 969.29,-138.8 959.29,-135.3 959.29,-142.3"/>
</g>
<!-- ScreenOrientation -->
<g id="node9" class="node">
<title>ScreenOrientation</title>
<ellipse fill="#fdb462" stroke="black" cx="105" cy="-66.8" rx="81.08" ry="18"/>
<text text-anchor="middle" x="105" y="-62.6" font-family="Times,serif" font-size="14.00">ScreenOrientation</text>
</g>
<!-- ScreenOrientation&#45;&gt;AppModule -->
<g id="edge8" class="edge">
<title>ScreenOrientation&#45;&gt;AppModule</title>
<path fill="none" stroke="black" d="M105,-85.12C105,-108.46 105,-145.8 105,-145.8 105,-145.8 959.12,-145.8 959.12,-145.8"/>
<polygon fill="black" stroke="black" points="959.12,-149.3 969.12,-145.8 959.12,-142.3 959.12,-149.3"/>
</g>
<!-- Camera -->
<g id="node10" class="node">
<title>Camera</title>
<ellipse fill="#fdb462" stroke="black" cx="874" cy="-66.8" rx="41.13" ry="18"/>
<text text-anchor="middle" x="874" y="-62.6" font-family="Times,serif" font-size="14.00">Camera</text>
</g>
<!-- Camera&#45;&gt;AppModule -->
<g id="edge9" class="edge">
<title>Camera&#45;&gt;AppModule</title>
<path fill="none" stroke="black" d="M874,-84.83C874,-101.86 874,-124.8 874,-124.8 874,-124.8 959.15,-124.8 959.15,-124.8"/>
<polygon fill="black" stroke="black" points="959.15,-128.3 969.15,-124.8 959.15,-121.3 959.15,-128.3"/>
</g>
<!-- SQLite -->
<g id="node11" class="node">
<title>SQLite</title>
<ellipse fill="#fdb462" stroke="black" cx="776" cy="-66.8" rx="38.86" ry="18"/>
<text text-anchor="middle" x="776" y="-62.6" font-family="Times,serif" font-size="14.00">SQLite</text>
</g>
<!-- SQLite&#45;&gt;AppModule -->
<g id="edge10" class="edge">
<title>SQLite&#45;&gt;AppModule</title>
<path fill="none" stroke="black" d="M776,-84.91C776,-104.14 776,-131.8 776,-131.8 776,-131.8 959.26,-131.8 959.26,-131.8"/>
<polygon fill="black" stroke="black" points="959.26,-135.3 969.26,-131.8 959.26,-128.3 959.26,-135.3"/>
</g>
<!-- HomePage -->
<g id="node12" class="node">
<title>HomePage</title>
<polygon fill="#ffffb3" stroke="black" points="1739.93,-84.8 1662.07,-84.8 1662.07,-48.8 1739.93,-48.8 1739.93,-84.8"/>
<text text-anchor="middle" x="1701" y="-62.6" font-family="Times,serif" font-size="14.00">HomePage</text>
</g>
<!-- HomePageModule -->
<g id="node13" class="node">
<title>HomePageModule</title>
<polygon fill="#8dd3c7" stroke="black" points="2052.48,-152.8 2049.48,-156.8 2028.48,-156.8 2025.48,-152.8 1931.52,-152.8 1931.52,-116.8 2052.48,-116.8 2052.48,-152.8"/>
<text text-anchor="middle" x="1992" y="-130.6" font-family="Times,serif" font-size="14.00">HomePageModule</text>
</g>
<!-- HomePage&#45;&gt;HomePageModule -->
<g id="edge11" class="edge">
<title>HomePage&#45;&gt;HomePageModule</title>
<path fill="none" stroke="black" d="M1701,-84.83C1701,-101.2 1701,-122.8 1701,-122.8 1701,-122.8 1921.35,-122.8 1921.35,-122.8"/>
<polygon fill="black" stroke="black" points="1921.35,-126.3 1931.35,-122.8 1921.35,-119.3 1921.35,-126.3"/>
</g>
<!-- CommonModule -->
<g id="node14" class="node">
<title>CommonModule</title>
<polygon fill="#8dd3c7" stroke="black" points="2279.67,-84.8 2276.67,-88.8 2255.67,-88.8 2252.67,-84.8 2168.33,-84.8 2168.33,-48.8 2279.67,-48.8 2279.67,-84.8"/>
<text text-anchor="middle" x="2224" y="-62.6" font-family="Times,serif" font-size="14.00">CommonModule</text>
</g>
<!-- CommonModule&#45;&gt;HomePageModule -->
<g id="edge12" class="edge">
<title>CommonModule&#45;&gt;HomePageModule</title>
<path fill="none" stroke="black" d="M2205.39,-84.83C2205.39,-101.86 2205.39,-124.8 2205.39,-124.8 2205.39,-124.8 2062.58,-124.8 2062.58,-124.8"/>
<polygon fill="black" stroke="black" points="2062.58,-121.3 2052.58,-124.8 2062.58,-128.3 2062.58,-121.3"/>
</g>
<!-- SurveyPageModule -->
<g id="node23" class="node">
<title>SurveyPageModule</title>
<polygon fill="#8dd3c7" stroke="black" points="2655.43,-152.8 2652.43,-156.8 2631.43,-156.8 2628.43,-152.8 2528.57,-152.8 2528.57,-116.8 2655.43,-116.8 2655.43,-152.8"/>
<text text-anchor="middle" x="2592" y="-130.6" font-family="Times,serif" font-size="14.00">SurveyPageModule</text>
</g>
<!-- CommonModule&#45;&gt;SurveyPageModule -->
<g id="edge21" class="edge">
<title>CommonModule&#45;&gt;SurveyPageModule</title>
<path fill="none" stroke="black" d="M2242.61,-84.97C2242.61,-106.3 2242.61,-138.8 2242.61,-138.8 2242.61,-138.8 2518.73,-138.8 2518.73,-138.8"/>
<polygon fill="black" stroke="black" points="2518.73,-142.3 2528.73,-138.8 2518.73,-135.3 2518.73,-142.3"/>
</g>
<!-- FormsModule -->
<g id="node15" class="node">
<title>FormsModule</title>
<polygon fill="#8dd3c7" stroke="black" points="2149.84,-84.8 2146.84,-88.8 2125.84,-88.8 2122.84,-84.8 2054.16,-84.8 2054.16,-48.8 2149.84,-48.8 2149.84,-84.8"/>
<text text-anchor="middle" x="2102" y="-62.6" font-family="Times,serif" font-size="14.00">FormsModule</text>
</g>
<!-- FormsModule&#45;&gt;HomePageModule -->
<g id="edge13" class="edge">
<title>FormsModule&#45;&gt;HomePageModule</title>
<path fill="none" stroke="black" d="M2054.11,-66.8C2048.27,-66.8 2044.32,-66.8 2044.32,-66.8 2044.32,-66.8 2044.32,-106.58 2044.32,-106.58"/>
<polygon fill="black" stroke="black" points="2040.82,-106.58 2044.32,-116.58 2047.82,-106.58 2040.82,-106.58"/>
</g>
<!-- FormsModule&#45;&gt;SurveyPageModule -->
<g id="edge22" class="edge">
<title>FormsModule&#45;&gt;SurveyPageModule</title>
<path fill="none" stroke="black" d="M2102,-85.12C2102,-108.46 2102,-145.8 2102,-145.8 2102,-145.8 2518.69,-145.8 2518.69,-145.8"/>
<polygon fill="black" stroke="black" points="2518.69,-149.3 2528.69,-145.8 2518.69,-142.3 2518.69,-149.3"/>
</g>
<!-- IonicModule -->
<g id="node16" class="node">
<title>IonicModule</title>
<polygon fill="#8dd3c7" stroke="black" points="2036.32,-84.8 2033.32,-88.8 2012.32,-88.8 2009.32,-84.8 1947.68,-84.8 1947.68,-48.8 2036.32,-48.8 2036.32,-84.8"/>
<text text-anchor="middle" x="1992" y="-62.6" font-family="Times,serif" font-size="14.00">IonicModule</text>
</g>
<!-- IonicModule&#45;&gt;HomePageModule -->
<g id="edge14" class="edge">
<title>IonicModule&#45;&gt;HomePageModule</title>
<path fill="none" stroke="black" d="M1977.28,-85.02C1977.28,-85.02 1977.28,-106.53 1977.28,-106.53"/>
<polygon fill="black" stroke="black" points="1973.78,-106.53 1977.28,-116.53 1980.78,-106.53 1973.78,-106.53"/>
</g>
<!-- IonicModule&#45;&gt;SurveyPageModule -->
<g id="edge24" class="edge">
<title>IonicModule&#45;&gt;SurveyPageModule</title>
<path fill="none" stroke="black" d="M2006.72,-84.99C2006.72,-93.08 2006.72,-100.8 2006.72,-100.8 2006.72,-100.8 2551.54,-100.8 2551.54,-100.8 2551.54,-100.8 2551.54,-106.61 2551.54,-106.61"/>
<polygon fill="black" stroke="black" points="2548.04,-106.61 2551.54,-116.61 2555.04,-106.61 2548.04,-106.61"/>
</g>
<!-- HomePageRoutingModule -->
<g id="node17" class="node">
<title>HomePageRoutingModule</title>
<polygon fill="#8dd3c7" stroke="black" points="1930.1,-84.8 1927.1,-88.8 1906.1,-88.8 1903.1,-84.8 1763.9,-84.8 1763.9,-48.8 1930.1,-48.8 1930.1,-84.8"/>
<text text-anchor="middle" x="1847" y="-62.6" font-family="Times,serif" font-size="14.00">HomePageRoutingModule</text>
</g>
<!-- HomePageRoutingModule&#45;&gt;HomePageModule -->
<g id="edge15" class="edge">
<title>HomePageRoutingModule&#45;&gt;HomePageModule</title>
<path fill="none" stroke="black" d="M1930.11,-66.8C1936,-66.8 1939.68,-66.8 1939.68,-66.8 1939.68,-66.8 1939.68,-106.58 1939.68,-106.58"/>
<polygon fill="black" stroke="black" points="1936.18,-106.58 1939.68,-116.58 1943.18,-106.58 1936.18,-106.58"/>
</g>
<!-- SurveyPage -->
<g id="node18" class="node">
<title>SurveyPage</title>
<polygon fill="#ffffb3" stroke="black" points="2697.38,-84.8 2614.62,-84.8 2614.62,-48.8 2697.38,-48.8 2697.38,-84.8"/>
<text text-anchor="middle" x="2656" y="-62.6" font-family="Times,serif" font-size="14.00">SurveyPage</text>
</g>
<!-- SurveyPage&#45;&gt;SurveyPageModule -->
<g id="edge16" class="edge">
<title>SurveyPage&#45;&gt;SurveyPageModule</title>
<path fill="none" stroke="black" d="M2634.89,-85.02C2634.89,-85.02 2634.89,-106.53 2634.89,-106.53"/>
<polygon fill="black" stroke="black" points="2631.39,-106.53 2634.89,-116.53 2638.39,-106.53 2631.39,-106.53"/>
</g>
<!-- MainformComponent -->
<g id="node19" class="node">
<title>MainformComponent</title>
<polygon fill="#ffffb3" stroke="black" points="2597.1,-84.8 2458.9,-84.8 2458.9,-48.8 2597.1,-48.8 2597.1,-84.8"/>
<text text-anchor="middle" x="2528" y="-62.6" font-family="Times,serif" font-size="14.00">MainformComponent</text>
</g>
<!-- MainformComponent&#45;&gt;SurveyPageModule -->
<g id="edge17" class="edge">
<title>MainformComponent&#45;&gt;SurveyPageModule</title>
<path fill="none" stroke="black" d="M2574.29,-85.02C2574.29,-85.02 2574.29,-106.53 2574.29,-106.53"/>
<polygon fill="black" stroke="black" points="2570.79,-106.53 2574.29,-116.53 2577.79,-106.53 2570.79,-106.53"/>
</g>
<!-- SurveyComponent -->
<g id="node20" class="node">
<title>SurveyComponent</title>
<polygon fill="#ffffb3" stroke="black" points="2440.49,-84.8 2319.51,-84.8 2319.51,-48.8 2440.49,-48.8 2440.49,-84.8"/>
<text text-anchor="middle" x="2380" y="-62.6" font-family="Times,serif" font-size="14.00">SurveyComponent</text>
</g>
<!-- SurveyComponent&#45;&gt;SurveyPageModule -->
<g id="edge18" class="edge">
<title>SurveyComponent&#45;&gt;SurveyPageModule</title>
<path fill="none" stroke="black" d="M2380,-84.91C2380,-104.14 2380,-131.8 2380,-131.8 2380,-131.8 2518.68,-131.8 2518.68,-131.8"/>
<polygon fill="black" stroke="black" points="2518.68,-135.3 2528.68,-131.8 2518.68,-128.3 2518.68,-135.3"/>
</g>
<!-- SurveyListComponent -->
<g id="node21" class="node">
<title>SurveyListComponent</title>
<polygon fill="#ffffb3" stroke="black" points="3021.27,-84.8 2878.73,-84.8 2878.73,-48.8 3021.27,-48.8 3021.27,-84.8"/>
<text text-anchor="middle" x="2950" y="-62.6" font-family="Times,serif" font-size="14.00">SurveyListComponent</text>
</g>
<!-- SurveyListComponent&#45;&gt;SurveyPageModule -->
<g id="edge19" class="edge">
<title>SurveyListComponent&#45;&gt;SurveyPageModule</title>
<path fill="none" stroke="black" d="M2950,-84.91C2950,-104.14 2950,-131.8 2950,-131.8 2950,-131.8 2665.59,-131.8 2665.59,-131.8"/>
<polygon fill="black" stroke="black" points="2665.59,-128.3 2655.59,-131.8 2665.59,-135.3 2665.59,-128.3"/>
</g>
<!-- OnlynumbersDirective -->
<g id="node22" class="node">
<title>OnlynumbersDirective</title>
<polygon fill="#ffffb3" stroke="black" points="2860.3,-84.8 2715.7,-84.8 2715.7,-48.8 2860.3,-48.8 2860.3,-84.8"/>
<text text-anchor="middle" x="2788" y="-62.6" font-family="Times,serif" font-size="14.00">OnlynumbersDirective</text>
</g>
<!-- OnlynumbersDirective&#45;&gt;SurveyPageModule -->
<g id="edge20" class="edge">
<title>OnlynumbersDirective&#45;&gt;SurveyPageModule</title>
<path fill="none" stroke="black" d="M2788,-84.83C2788,-101.86 2788,-124.8 2788,-124.8 2788,-124.8 2665.36,-124.8 2665.36,-124.8"/>
<polygon fill="black" stroke="black" points="2665.36,-121.3 2655.36,-124.8 2665.36,-128.3 2665.36,-121.3"/>
</g>
<!-- ReactiveFormsModule -->
<g id="node24" class="node">
<title>ReactiveFormsModule</title>
<polygon fill="#8dd3c7" stroke="black" points="3189.31,-84.8 3186.31,-88.8 3165.31,-88.8 3162.31,-84.8 3044.69,-84.8 3044.69,-48.8 3189.31,-48.8 3189.31,-84.8"/>
<text text-anchor="middle" x="3117" y="-62.6" font-family="Times,serif" font-size="14.00">ReactiveFormsModule</text>
</g>
<!-- ReactiveFormsModule&#45;&gt;SurveyPageModule -->
<g id="edge23" class="edge">
<title>ReactiveFormsModule&#45;&gt;SurveyPageModule</title>
<path fill="none" stroke="black" d="M3117,-84.97C3117,-106.3 3117,-138.8 3117,-138.8 3117,-138.8 2665.33,-138.8 2665.33,-138.8"/>
<polygon fill="black" stroke="black" points="2665.33,-135.3 2655.33,-138.8 2665.33,-142.3 2665.33,-135.3"/>
</g>
<!-- SurveyPageRoutingModule -->
<g id="node25" class="node">
<title>SurveyPageRoutingModule</title>
<polygon fill="#8dd3c7" stroke="black" points="3378.55,-84.8 3375.55,-88.8 3354.55,-88.8 3351.55,-84.8 3207.45,-84.8 3207.45,-48.8 3378.55,-48.8 3378.55,-84.8"/>
<text text-anchor="middle" x="3293" y="-62.6" font-family="Times,serif" font-size="14.00">SurveyPageRoutingModule</text>
</g>
<!-- SurveyPageRoutingModule&#45;&gt;SurveyPageModule -->
<g id="edge25" class="edge">
<title>SurveyPageRoutingModule&#45;&gt;SurveyPageModule</title>
<path fill="none" stroke="black" d="M3293,-85.12C3293,-108.46 3293,-145.8 3293,-145.8 3293,-145.8 2665.45,-145.8 2665.45,-145.8"/>
<polygon fill="black" stroke="black" points="2665.45,-142.3 2655.45,-145.8 2665.45,-149.3 2665.45,-142.3"/>
</g>
<!-- RouterModule  -->
<g id="node27" class="node">
<title>RouterModule </title>
<polygon fill="#fb8072" stroke="black" points="3520.66,-152.8 3419.34,-152.8 3419.34,-116.8 3520.66,-116.8 3520.66,-152.8"/>
<text text-anchor="middle" x="3470" y="-130.6" font-family="Times,serif" font-size="14.00">RouterModule </text>
</g>
<!-- SurveyPageRoutingModule&#45;&gt;RouterModule  -->
<g id="edge27" class="edge">
<title>SurveyPageRoutingModule&#45;&gt;RouterModule </title>
<path fill="none" stroke="black" stroke-dasharray="5,2" d="M3378.65,-72.8C3423.83,-72.8 3470,-72.8 3470,-72.8 3470,-72.8 3470,-106.53 3470,-106.53"/>
<polygon fill="black" stroke="black" points="3466.5,-106.53 3470,-116.53 3473.5,-106.53 3466.5,-106.53"/>
</g>
<!-- RouterModule.forChild(args) -->
<g id="node26" class="node">
<title>RouterModule.forChild(args)</title>
<polygon fill="#8dd3c7" stroke="black" points="3726.75,-152.8 3723.75,-156.8 3702.75,-156.8 3699.75,-152.8 3545.25,-152.8 3545.25,-116.8 3726.75,-116.8 3726.75,-152.8"/>
<text text-anchor="middle" x="3636" y="-130.6" font-family="Times,serif" font-size="14.00">RouterModule.forChild(args)</text>
</g>
<!-- RouterModule.forChild(args)&#45;&gt;SurveyPageRoutingModule -->
<g id="edge26" class="edge">
<title>RouterModule.forChild(args)&#45;&gt;SurveyPageRoutingModule</title>
<path fill="none" stroke="black" d="M3636,-116.51C3636,-94.59 3636,-60.8 3636,-60.8 3636,-60.8 3388.67,-60.8 3388.67,-60.8"/>
<polygon fill="black" stroke="black" points="3388.67,-57.3 3378.67,-60.8 3388.67,-64.3 3388.67,-57.3"/>
</g>
</g>
</svg>
