<?xml version="1.0" encoding="UTF-8" standalone="no"?>
<!DOCTYPE svg PUBLIC "-//W3C//DTD SVG 1.1//EN"
 "http://www.w3.org/Graphics/SVG/1.1/DTD/svg11.dtd">
<!-- Generated by graphviz version 5.0.0 (20220707.1540)
 -->
<!-- Title: dependencies Pages: 1 -->
<svg width="1429pt" height="174pt"
 viewBox="0.00 0.00 1429.00 173.80" xmlns="http://www.w3.org/2000/svg" xmlns:xlink="http://www.w3.org/1999/xlink">
<g id="graph0" class="graph" transform="scale(1 1) rotate(0) translate(4 169.8)">
<title>dependencies</title>
<polygon fill="white" stroke="transparent" points="-4,4 -4,-169.8 1425,-169.8 1425,4 -4,4"/>
<text text-anchor="middle" x="710.5" y="-8.2" font-family="sans-serif" font-size="14.00">dependencies</text>
<g id="clust1" class="cluster">
<title>cluster_AppModule</title>
<polygon fill="none" stroke="black" stroke-dasharray="1,5" points="8,-32.8 8,-157.8 168,-157.8 168,-32.8 8,-32.8"/>
</g>
<g id="clust3" class="cluster">
<title>cluster_AppModule_imports</title>
<polygon fill="none" stroke="black" points="16,-40.8 16,-92.8 160,-92.8 160,-40.8 16,-40.8"/>
</g>
<g id="clust13" class="cluster">
<title>cluster_HomePageModule</title>
<polygon fill="none" stroke="black" stroke-dasharray="1,5" points="176,-32.8 176,-157.8 476,-157.8 476,-32.8 176,-32.8"/>
</g>
<g id="clust14" class="cluster">
<title>cluster_HomePageModule_declarations</title>
<polygon fill="none" stroke="black" points="374,-40.8 374,-92.8 468,-92.8 468,-40.8 374,-40.8"/>
</g>
<g id="clust16" class="cluster">
<title>cluster_HomePageModule_imports</title>
<polygon fill="none" stroke="black" points="184,-40.8 184,-92.8 366,-92.8 366,-40.8 184,-40.8"/>
</g>
<g id="clust26" class="cluster">
<title>cluster_SurveyPageModule</title>
<polygon fill="none" stroke="black" stroke-dasharray="1,5" points="484,-32.8 484,-157.8 1413,-157.8 1413,-32.8 484,-32.8"/>
</g>
<g id="clust27" class="cluster">
<title>cluster_SurveyPageModule_declarations</title>
<polygon fill="none" stroke="black" points="688,-40.8 688,-92.8 1405,-92.8 1405,-40.8 688,-40.8"/>
</g>
<g id="clust33" class="cluster">
<title>cluster_SurveyPageModule_imports</title>
<polygon fill="none" stroke="black" points="492,-40.8 492,-92.8 680,-92.8 680,-40.8 492,-40.8"/>
</g>
<!-- AppRoutingModule -->
<g id="node1" class="node">
<title>AppRoutingModule</title>
<polygon fill="#8dd3c7" stroke="black" points="152.28,-84.8 149.28,-88.8 128.28,-88.8 125.28,-84.8 23.72,-84.8 23.72,-48.8 152.28,-48.8 152.28,-84.8"/>
<text text-anchor="middle" x="88" y="-62.6" font-family="Times,serif" font-size="14.00">AppRoutingModule</text>
</g>
<!-- AppModule -->
<g id="node2" class="node">
<title>AppModule</title>
<polygon fill="#8dd3c7" stroke="black" points="129.66,-149.8 126.66,-153.8 105.66,-153.8 102.66,-149.8 46.34,-149.8 46.34,-113.8 129.66,-113.8 129.66,-149.8"/>
<text text-anchor="middle" x="88" y="-127.6" font-family="Times,serif" font-size="14.00">AppModule</text>
</g>
<!-- AppRoutingModule&#45;&gt;AppModule -->
<g id="edge1" class="edge">
<title>AppRoutingModule&#45;&gt;AppModule</title>
<path fill="none" stroke="black" d="M88,-84.91C88,-84.91 88,-103.79 88,-103.79"/>
<polygon fill="black" stroke="black" points="84.5,-103.79 88,-113.79 91.5,-103.79 84.5,-103.79"/>
</g>
<!-- HomePage -->
<g id="node3" class="node">
<title>HomePage</title>
<polygon fill="#ffffb3" stroke="black" points="459.93,-84.8 382.07,-84.8 382.07,-48.8 459.93,-48.8 459.93,-84.8"/>
<text text-anchor="middle" x="421" y="-62.6" font-family="Times,serif" font-size="14.00">HomePage</text>
</g>
<!-- HomePageModule -->
<g id="node4" class="node">
<title>HomePageModule</title>
<polygon fill="#8dd3c7" stroke="black" points="401.48,-149.8 398.48,-153.8 377.48,-153.8 374.48,-149.8 280.52,-149.8 280.52,-113.8 401.48,-113.8 401.48,-149.8"/>
<text text-anchor="middle" x="341" y="-127.6" font-family="Times,serif" font-size="14.00">HomePageModule</text>
</g>
<!-- HomePage&#45;&gt;HomePageModule -->
<g id="edge2" class="edge">
<title>HomePage&#45;&gt;HomePageModule</title>
<path fill="none" stroke="black" d="M391.89,-84.91C391.89,-84.91 391.89,-103.79 391.89,-103.79"/>
<polygon fill="black" stroke="black" points="388.39,-103.79 391.89,-113.79 395.39,-103.79 388.39,-103.79"/>
</g>
<!-- HomePageRoutingModule -->
<g id="node5" class="node">
<title>HomePageRoutingModule</title>
<polygon fill="#8dd3c7" stroke="black" points="358.1,-84.8 355.1,-88.8 334.1,-88.8 331.1,-84.8 191.9,-84.8 191.9,-48.8 358.1,-48.8 358.1,-84.8"/>
<text text-anchor="middle" x="275" y="-62.6" font-family="Times,serif" font-size="14.00">HomePageRoutingModule</text>
</g>
<!-- HomePageRoutingModule&#45;&gt;HomePageModule -->
<g id="edge3" class="edge">
<title>HomePageRoutingModule&#45;&gt;HomePageModule</title>
<path fill="none" stroke="black" d="M319.28,-84.91C319.28,-84.91 319.28,-103.79 319.28,-103.79"/>
<polygon fill="black" stroke="black" points="315.78,-103.79 319.28,-113.79 322.78,-103.79 315.78,-103.79"/>
</g>
<!-- MainformComponent -->
<g id="node6" class="node">
<title>MainformComponent</title>
<polygon fill="#ffffb3" stroke="black" points="1397.1,-84.8 1258.9,-84.8 1258.9,-48.8 1397.1,-48.8 1397.1,-84.8"/>
<text text-anchor="middle" x="1328" y="-62.6" font-family="Times,serif" font-size="14.00">MainformComponent</text>
</g>
<!-- SurveyPageModule -->
<g id="node11" class="node">
<title>SurveyPageModule</title>
<polygon fill="#8dd3c7" stroke="black" points="1006.43,-149.8 1003.43,-153.8 982.43,-153.8 979.43,-149.8 879.57,-149.8 879.57,-113.8 1006.43,-113.8 1006.43,-149.8"/>
<text text-anchor="middle" x="943" y="-127.6" font-family="Times,serif" font-size="14.00">SurveyPageModule</text>
</g>
<!-- MainformComponent&#45;&gt;SurveyPageModule -->
<g id="edge4" class="edge">
<title>MainformComponent&#45;&gt;SurveyPageModule</title>
<path fill="none" stroke="black" d="M1328,-85.08C1328,-106.12 1328,-137.8 1328,-137.8 1328,-137.8 1016.57,-137.8 1016.57,-137.8"/>
<polygon fill="black" stroke="black" points="1016.57,-134.3 1006.57,-137.8 1016.57,-141.3 1016.57,-134.3"/>
</g>
<!-- OnlynumbersDirective -->
<g id="node7" class="node">
<title>OnlynumbersDirective</title>
<polygon fill="#ffffb3" stroke="black" points="1241.3,-84.8 1096.7,-84.8 1096.7,-48.8 1241.3,-48.8 1241.3,-84.8"/>
<text text-anchor="middle" x="1169" y="-62.6" font-family="Times,serif" font-size="14.00">OnlynumbersDirective</text>
</g>
<!-- OnlynumbersDirective&#45;&gt;SurveyPageModule -->
<g id="edge5" class="edge">
<title>OnlynumbersDirective&#45;&gt;SurveyPageModule</title>
<path fill="none" stroke="black" d="M1169,-84.82C1169,-102.17 1169,-125.8 1169,-125.8 1169,-125.8 1016.25,-125.8 1016.25,-125.8"/>
<polygon fill="black" stroke="black" points="1016.25,-122.3 1006.25,-125.8 1016.25,-129.3 1016.25,-122.3"/>
</g>
<!-- SurveyComponent -->
<g id="node8" class="node">
<title>SurveyComponent</title>
<polygon fill="#ffffb3" stroke="black" points="1078.49,-84.8 957.51,-84.8 957.51,-48.8 1078.49,-48.8 1078.49,-84.8"/>
<text text-anchor="middle" x="1018" y="-62.6" font-family="Times,serif" font-size="14.00">SurveyComponent</text>
</g>
<!-- SurveyComponent&#45;&gt;SurveyPageModule -->
<g id="edge6" class="edge">
<title>SurveyComponent&#45;&gt;SurveyPageModule</title>
<path fill="none" stroke="black" d="M981.86,-84.91C981.86,-84.91 981.86,-103.79 981.86,-103.79"/>
<polygon fill="black" stroke="black" points="978.36,-103.79 981.86,-113.79 985.36,-103.79 978.36,-103.79"/>
</g>
<!-- SurveyListComponent -->
<g id="node9" class="node">
<title>SurveyListComponent</title>
<polygon fill="#ffffb3" stroke="black" points="939.27,-84.8 796.73,-84.8 796.73,-48.8 939.27,-48.8 939.27,-84.8"/>
<text text-anchor="middle" x="868" y="-62.6" font-family="Times,serif" font-size="14.00">SurveyListComponent</text>
</g>
<!-- SurveyListComponent&#45;&gt;SurveyPageModule -->
<g id="edge7" class="edge">
<title>SurveyListComponent&#45;&gt;SurveyPageModule</title>
<path fill="none" stroke="black" d="M909.59,-84.91C909.59,-84.91 909.59,-103.79 909.59,-103.79"/>
<polygon fill="black" stroke="black" points="906.09,-103.79 909.59,-113.79 913.09,-103.79 906.09,-103.79"/>
</g>
<!-- SurveyPage -->
<g id="node10" class="node">
<title>SurveyPage</title>
<polygon fill="#ffffb3" stroke="black" points="778.38,-84.8 695.62,-84.8 695.62,-48.8 778.38,-48.8 778.38,-84.8"/>
<text text-anchor="middle" x="737" y="-62.6" font-family="Times,serif" font-size="14.00">SurveyPage</text>
</g>
<!-- SurveyPage&#45;&gt;SurveyPageModule -->
<g id="edge8" class="edge">
<title>SurveyPage&#45;&gt;SurveyPageModule</title>
<path fill="none" stroke="black" d="M737,-84.82C737,-102.17 737,-125.8 737,-125.8 737,-125.8 869.51,-125.8 869.51,-125.8"/>
<polygon fill="black" stroke="black" points="869.51,-129.3 879.51,-125.8 869.51,-122.3 869.51,-129.3"/>
</g>
<!-- SurveyPageRoutingModule -->
<g id="node12" class="node">
<title>SurveyPageRoutingModule</title>
<polygon fill="#8dd3c7" stroke="black" points="671.55,-84.8 668.55,-88.8 647.55,-88.8 644.55,-84.8 500.45,-84.8 500.45,-48.8 671.55,-48.8 671.55,-84.8"/>
<text text-anchor="middle" x="586" y="-62.6" font-family="Times,serif" font-size="14.00">SurveyPageRoutingModule</text>
</g>
<!-- SurveyPageRoutingModule&#45;&gt;SurveyPageModule -->
<g id="edge9" class="edge">
<title>SurveyPageRoutingModule&#45;&gt;SurveyPageModule</title>
<path fill="none" stroke="black" d="M586,-85.08C586,-106.12 586,-137.8 586,-137.8 586,-137.8 869.59,-137.8 869.59,-137.8"/>
<polygon fill="black" stroke="black" points="869.59,-141.3 879.59,-137.8 869.59,-134.3 869.59,-141.3"/>
</g>
</g>
</svg>
